#!OML:ASF H:\Dans Jumps\Project 1\Capture day 1\Session 1\subject.ASF
:FULLY-SPECIFIED
:DEGREES
294
root 0.0832326 17.2413 4.15312 0.382594 -2.31049 -2.09109
lowerback 7.42586 1.26579 -0.961031
upperback 4.66702 1.62243 0.768263
thorax 0.605673 0.780947 1.21949
lowerneck -8.77391 -0.131144 -0.86399
upperneck 28.659 -0.541677 1.8989
head 10.6236 -0.120345 0.768519
rclavicle -1.84621e-014 9.54166e-015
rhumerus -39.9495 -17.6782 -75.6646
rradius 24.0132
rwrist 38.5993
rhand -18.7117 -25.8734
rfingers 7.12502
rthumb 7.58345 -55.7175
lclavicle -1.84621e-014 9.54166e-015
lhumerus -42.5451 9.41274 80.6424
lradius 3.16944
lwrist -13.6944
lhand -17.897 -2.2632
lfingers 7.12502
lthumb 8.36973 27.551
rfemur -35.1116 -3.78162 21.5662
rtibia 33.4686
rfoot 3.74991 5.39323
rtoes -2.50715
lfemur -31.3879 7.19502 -17.0897
ltibia 31.163
lfoot -11.1798 5.50454
ltoes -24.4844
295
root 0.0765177 16.9303 4.38412 -0.618452 -2.33975 -2.08774
lowerback 7.86201 1.29379 -0.987177
upperback 4.51631 1.65494 0.797783
thorax 0.207083 0.799626 1.25011
lowerneck -8.86043 -0.165834 -0.830727
upperneck 28.7926 -0.593539 1.87791
head 10.6918 -0.141927 0.750363
rclavicle 4.72114e-016 6.16232e-015
rhumerus -39.6347 -18.7175 -74.9339
rradius 23.0934
rwrist 40.1653
rhand -18.986 -26.0601
rfingers 7.12502
rthumb 7.31863 -55.9135
lclavicle 4.72114e-016 6.16232e-015
lhumerus -41.7331 9.75753 80.4111
lradius 2.71216
lwrist -14.5295
lhand -18.4382 -2.23032
lfingers 7.12502
lthumb 7.84742 27.604
rfemur -34.7716 -3.5599 21.6589
rtibia 36.2439
rfoot 1.07934 6.30276
rtoes -0.265763
lfemur -31.6138 7.36718 -17.1608
ltibia 34.2473
lfoot -10.291 4.56081
ltoes -24.5284
296
root 0.0688178 16.6455 4.59033 -1.50106 -2.25575 -2.02038
lowerback 8.34115 1.29607 -1.09092
upperback 4.32237 1.64744 0.825524
thorax -0.260324 0.797958 1.32393
lowerneck -8.95002 -0.202098 -0.809022
upperneck 28.8058 -0.63937 1.84235
head 10.7152 -0.163885 0.728709
rclavicle 1.3418e-015 -9.64106e-015
rhumerus -39.1558 -19.9567 -74.1332
rradius 22.2041
rwrist 41.9574
rhand -19.3486 -26.3526
rfingers 7.12502
rthumb 6.96862 -56.2179
lclavicle 1.3418e-015 -9.64106e-015
lhumerus -40.6667 10.1305 80.2603
lradius 2.3089
lwrist -15.191
lhand -19.2969 -2.28458
lfingers 7.12502
lthumb 7.01856 27.5791
rfemur -34.8967 -3.30318 21.683
rtibia 39.5259
rfoot -1.98556 6.23257
rtoes 2.55753
lfemur -32.3824 7.34684 -17.2487
ltibia 37.9106
lfoot -9.31137 3.62924
ltoes -23.9775
297
root 0.0572984 16.3773 4.77343 -2.14536 -2.09214 -1.96701
lowerback 8.73212 1.29076 -1.2334
upperback 4.10704 1.62717 0.880176
thorax -0.702427 0.789817 1.4505
lowerneck -9.0691 -0.248976 -0.774986
upperneck 28.6768 -0.6854 1.75351
head 10.6907 -0.190934 0.684747
rclavicle -1.45858e-014 5.96354e-016
rhumerus -38.4205 -21.4542 -73.2962
rradius 21.344
rwrist 44.0255
rhand -19.7702 -26.7559
rfingers 7.12502
rthumb 6.56163 -56.6343
lclavicle -1.45858e-014 5.96354e-016
lhumerus -39.2363 10.5491 80.2456
lradius 1.96525
lwrist -15.6998
lhand -20.3905 -2.32715
lfingers 7.12502
lthumb 5.96284 27.5689
rfemur -35.706 -2.8412 21.6722
rtibia 43.3765
rfoot -4.91837 5.17118
rtoes 5.80895
lfemur -33.8113 7.05805 -17.2367
ltibia 42.1964
lfoot -8.66248 3.11396
ltoes -22.4408
298
root 0.0397451 16.1128 4.9393 -2.54032 -1.90468 -1.93935
lowerback 8.98383 1.3052 -1.43077
upperback 3.90915 1.6297 0.966297
thorax -1.05296 0.792463 1.64195
lowerneck -9.24125 -0.316716 -0.753087
upperneck 28.4199 -0.75197 1.6485
head 10.629 -0.230575 0.634005
rclavicle -1.21631e-014 4.27387e-015
rhumerus -37.383 -23.1907 -72.5071
rradius 20.5513
rwrist 46.3365
rhand -20.1981 -27.2478
rfingers 7.12502
rthumb 6.14861 -57.1386
lclavicle -1.21631e-014 4.27387e-015
lhumerus -37.4108 10.9978 80.3852
lradius 1.72544
lwrist -16.099
lhand -21.6394 -2.34663
lfingers 7.12502
lthumb 4.75695 27.58
rfemur -37.2031 -2.15755 21.6388
rtibia 47.7321
rfoot -7.48673 3.53436
rtoes 8.62469
lfemur -35.7848 6.61712 -17.1232
ltibia 46.941
lfoot -8.63365 3.13043
ltoes -19.8595
299
root 0.0175799 15.8473 5.09764 -2.79417 -1.73491 -1.94205
lowerback 9.12989 1.34967 -1.65715
upperback 3.77306 1.67044 1.07358
thorax -1.28466 0.813385 1.87101
lowerneck -9.43377 -0.408997 -0.740769
upperneck 28.0513 -0.850259 1.54454
head 10.5303 -0.285865 0.581224
rclavicle 2.21396e-014 -1.88845e-015
rhumerus -36.0566 -25.0182 -71.9011
rradius 19.8958
rwrist 48.7095
rhand -20.5546 -27.7675
rfingers 7.12502
rthumb 5.80433 -57.668
lclavicle 2.21396e-014 -1.88845e-015
lhumerus -35.2544 11.448 80.6479
lradius 1.6414
lwrist -16.429
lhand -23.0247 -2.48582
lfingers 7.12502
lthumb 3.41926 27.4665
rfemur -39.0787 -1.38698 21.6008
rtibia 52.3019
rfoot -9.64772 1.81876
rtoes 10.0796
lfemur -37.9439 6.14813 -16.9276
ltibia 51.811
lfoot -9.32309 3.64714
ltoes -16.8905
300
root -0.00656858 15.5906 5.2551 -3.07596 -1.62025 -2.0083
lowerback 9.27439 1.42238 -1.84538
upperback 3.73242 1.75156 1.19878
thorax -1.41873 0.853546 2.09422
lowerneck -9.62759 -0.521081 -0.749993
upperneck 27.6477 -0.980226 1.47047
head 10.42 -0.354714 0.539294
rclavicle -2.73143e-014 9.93923e-017
rhumerus -34.468 -26.6549 -71.6457
rradius 19.4453
rwrist 50.8287
rhand -20.8189 -28.2017
rfingers 7.12502
rthumb 5.54922 -58.109
lclavicle -2.73143e-014 9.93923e-017
lhumerus -32.8961 11.8801 80.9726
lradius 1.7536
lwrist -16.7072
lhand -24.5715 -3.01656
lfingers 7.12502
lthumb 1.92543 26.9545
rfemur -40.8446 -0.682202 21.6179
rtibia 56.6817
rfoot -11.5254 0.397802
rtoes 10.0125
lfemur -39.8061 5.78188 -16.6429
ltibia 56.3685
lfoot -10.8325 4.64243
ltoes -14.6263
301
root -0.0283359 15.3685 5.41235 -3.56406 -1.54817 -2.12311
lowerback 9.55214 1.50669 -1.94704
upperback 3.79609 1.85276 1.3187
thorax -1.51715 0.903136 2.25936
lowerneck -9.78011 -0.646173 -0.767333
upperneck 27.3088 -1.13687 1.42861
head 10.3268 -0.433128 0.507684
rclavicle 5.87657e-015 -4.07509e-015
rhumerus -32.675 -27.7467 -71.8822
rradius 19.259
rwrist 52.3149
rhand -20.9952 -28.4756
rfingers 7.12502
rthumb 5.37896 -58.3873
lclavicle 5.87657e-015 -4.07509e-015
lhumerus -30.492 12.2678 81.2851
lradius 2.05816
lwrist -16.9313
lhand -26.0454 -3.96927
lfingers 7.12502
lthumb 0.50186 26.0099
rfemur -41.9795 -0.202182 21.7158
rtibia 60.4412
rfoot -13.3527 -0.680685
rtoes 8.82176
lfemur -40.9238 5.54936 -16.3152
ltibia 60.2244
lfoot -12.604 5.59828
ltoes -12.9673
302
root -0.0439179 15.1929 5.57032 -4.34589 -1.47098 -2.2324
lowerback 10.049 1.57459 -1.9679
upperback 3.93223 1.93479 1.41023
thorax -1.65646 0.943476 2.3472
lowerneck -9.87316 -0.773978 -0.808025
upperneck 27.1549 -1.30503 1.42283
head 10.291 -0.514897 0.492399
rclavicle -3.82039e-015 -6.70898e-015
rhumerus -30.7563 -27.9452 -72.6525
rradius 19.3747
rwrist 52.833
rhand -21.0994 -28.5612
rfingers 7.12502
rthumb 5.27834 -58.4755
lclavicle -3.82039e-015 -6.70898e-015
lhumerus -28.6663 12.6429 81.5063
lradius 3.46954
lwrist -17.1585
lhand -26.9382 -4.88052
lfingers 7.12502
lthumb -0.360354 25.0989
rfemur -42.181 -0.0835094 21.8564
rtibia 63.362
rfoot -15.1112 -1.51052
rtoes 7.06254
lfemur -41.0865 5.46237 -16.0759
ltibia 63.1739
lfoot -14.2119 6.74442
ltoes -13.9969
